# xmcd
#
# Track frame offsets:
#	150
#	10475
#	21828
#	38754
#	52962
#	75132
#	85055
#	108319
#	123041
#	144959
#
# Disc length: 2142
#
# Revision: 3
# Processed by: cddbd v1.5.1PL0 Copyright (c) Steve Scherf et al.
# Submitted via: EasyCDDAExtractor 5.0.4.1
# Normalized: r2:DSETVAR1
#
DISCID=66085c0a
DTITLE=Various Artist - Indigo Blues
DYEAR=1998
DGENRE=Blues
TTITLE0=Bo Diddley - Mess Around
TTITLE1=Elmore James - Look On Yonder Wall
TTITLE2=Gatemouth Moore - Goin' Down Slow
TTITLE3=Joe Liggins - I've Got A Right To Cry
TTITLE4=B.B. King - The Thrill Is Gone
TTITLE5=Leadbelly - How Long
TTITLE6=Lightnin' Hopkins - Last Night
TTITLE7=Billie Holiday - Lover Man
TTITLE8=John Mayall - Baby What You Want Me To Do
TTITLE9=Eddie "Clean Head" Vinson - I'm The Midnight Creeper
EXTD=shades of Blues\n
EXTT0=Bo Diddley\n
EXTT1=Elmore James\n
EXTT2=Gatemouth Moore\n
EXTT3=Joe Liggins\n
EXTT4=B.B. King\n
EXTT5=Leadbelly\n
EXTT6=Lightnin' Hopkins\n
EXTT7=Billie Holiday\n
EXTT8=John Mayall\n
EXTT9=Eddie "Clean Head" Vinson\n
PLAYORDER=
